<svg width="24" height="24" viewBox="0 0 24 24" fill="none" xmlns="http://www.w3.org/2000/svg">
<path d="M12 23.25C18.2132 23.25 23.25 18.2132 23.25 12C23.25 5.7868 18.2132 0.75 12 0.75C5.7868 0.75 0.75 5.7868 0.75 12C0.75 18.2132 5.7868 23.25 12 23.25Z" fill="#FFBB08"/>
<path fill-rule="evenodd" clip-rule="evenodd" d="M8.21433 7.02502C8.5457 7.02502 8.81433 7.29365 8.81433 7.62502V10.4966C8.81433 10.828 8.5457 11.0966 8.21433 11.0966C7.88296 11.0966 7.61433 10.828 7.61433 10.4966V7.62502C7.61433 7.29365 7.88296 7.02502 8.21433 7.02502ZM16.1072 7.02502C16.4386 7.02502 16.7072 7.29365 16.7072 7.62502V10.4966C16.7072 10.828 16.4386 11.0966 16.1072 11.0966C15.7758 11.0966 15.5072 10.828 15.5072 10.4966V7.62502C15.5072 7.29365 15.7758 7.02502 16.1072 7.02502ZM17.9978 15.1954C18.2575 15.4013 18.3011 15.7787 18.0952 16.0383C16.6224 17.896 14.6318 18.85 12.5402 18.85C10.4558 18.85 8.33338 17.9037 6.56915 16.0831C6.33854 15.8451 6.34451 15.4653 6.58248 15.2347C6.82045 15.0041 7.2003 15.0101 7.4309 15.248C9.00596 16.8734 10.83 17.65 12.5402 17.65C14.2433 17.65 15.8956 16.8811 17.1549 15.2928C17.3607 15.0331 17.7381 14.9895 17.9978 15.1954Z" fill="#092235"/>
</svg>
